#!OML:ASF F:\VICON\USERDATA\INSTALL\rory3\rory3.ASF
:FULLY-SPECIFIED
:DEGREES


331
root 0.602757 17.4777 32.9657 -0.94224 -4.69694 -7.02058
lowerback 8.3811 2.52565 7.17693
upperback 0.694397 4.10943 2.0858
thorax -3.62646 1.93895 -2.30309
lowerneck -15.6184 -3.27557 -1.64943
upperneck 19.827 -4.31784 0.874836
head 8.83597 -2.05675 0.0462382
rclavicle -8.95773e-015 1.48095e-014
rhumerus -16.5402 -9.91157 -82.4044
rradius 33.2067
rwrist -1.577
rhand -19.6215 25.2473
rfingers 7.12502
rthumb 6.7052 -4.62649
lclavicle -8.95773e-015 1.48095e-014
lhumerus -38.4588 18.061 73.3291
lradius 15.0404
lwrist -4.42267
lhand -28.2335 22.8901
lfingers 7.12502
lthumb -1.61141 52.8638
rfemur 11.7724 6.70686 34.6966
rtibia 30.278
rfoot -18.6235 -4.27354
rtoes -6.01242
lfemur -26.9779 -1.85443 -11.6832
ltibia 19.9719
lfoot -6.04877 0.293604
ltoes -1.76394
332
root 0.626697 17.4925 33.1861 -0.885944 -4.7429 -6.55187
lowerback 8.16235 2.58632 6.74793
upperback 0.608933 4.13075 1.94183
thorax -3.61039 1.95473 -2.20795
lowerneck -15.4343 -3.35358 -1.67668
upperneck 19.8219 -4.43123 0.914319
head 8.80387 -2.10913 0.0534614
rclavicle -3.95085e-014 -3.76697e-014
rhumerus -16.9196 -10.0541 -82.3617
rradius 33.2768
rwrist -1.64181
rhand -19.5923 24.9992
rfingers 7.12502
rthumb 6.73343 -4.87373
lclavicle -3.95085e-014 -3.76697e-014
lhumerus -38.7814 18.349 73.0634
lradius 14.8777
lwrist -4.74535
lhand -28.0799 22.6118
lfingers 7.12502
lthumb -1.46306 52.5866
rfemur 11.9609 6.58287 33.983
rtibia 31.0117
rfoot -17.6833 -3.81007
rtoes -6.88397
lfemur -27.1872 -2.03276 -12.2299
ltibia 21.1369
lfoot -4.75435 -1.42191
ltoes -0.673478
333
root 0.651632 17.5097 33.4191 -0.868226 -4.70323 -6.03456
lowerback 7.85874 2.63175 6.31774
upperback 0.454568 4.12956 1.77205
thorax -3.61877 1.9574 -2.13361
lowerneck -14.9722 -3.39665 -1.70147
upperneck 19.8204 -4.51479 1.01278
head 8.72351 -2.14308 0.0889188
rclavicle -1.01567e-014 3.27995e-015
rhumerus -17.5597 -10.485 -82.2961
rradius 33.3653
rwrist -1.41268
rhand -19.6038 24.7806
rfingers 7.12502
rthumb 6.72233 -5.09265
lclavicle -1.01567e-014 3.27995e-015
lhumerus -39.0891 19.2656 72.3137
lradius 14.0946
lwrist -5.80928
lhand -28.0593 22.5687
lfingers 7.12502
lthumb -1.44323 52.5436
rfemur 12.0318 6.48829 33.2172
rtibia 31.948
rfoot -16.5645 -3.0218
rtoes -6.42834
lfemur -27.1273 -2.27086 -12.851
ltibia 21.8602
lfoot -3.57274 -3.08957
ltoes -3.28878
334
root 0.676592 17.527 33.6522 -1.00144 -4.65721 -5.48989
lowerback 7.71326 2.62123 5.85891
upperback 0.20619 4.07029 1.58749
thorax -3.81888 1.92436 -2.0651
lowerneck -14.0604 -3.40114 -1.60443
upperneck 19.8097 -4.53915 0.924197
head 8.54955 -2.16341 0.0571461
rclavicle 4.01017e-014 9.54166e-015
rhumerus -18.4492 -10.9362 -82.2581
rradius 33.2324
rwrist -0.98762
rhand -19.5609 24.5365
rfingers 7.12502
rthumb 6.76368 -5.33551
lclavicle 4.01017e-014 9.54166e-015
lhumerus -39.8424 19.3705 71.8612
lradius 13.9721
lwrist -6.0364
lhand -27.6701 22.882
lfingers 7.12502
lthumb -1.06728 52.8591
rfemur 12.0123 6.33969 32.4233
rtibia 33.1144
rfoot -15.1533 -2.27675
rtoes -6.87534
lfemur -26.8779 -2.56032 -13.5033
ltibia 22.3884
lfoot -2.36824 -4.31479
ltoes -3.94755
335
root 0.696677 17.5466 33.8799 -1.19731 -4.64232 -4.77773
lowerback 7.87388 2.659 5.13799
upperback 0.174404 4.06274 1.41403
thorax -3.97864 1.92767 -1.85508
lowerneck -14.5487 -3.50997 -1.7329
upperneck 20.3577 -4.67805 0.989495
head 8.83235 -2.2246 0.0693907
rclavicle -2.33479e-014 -3.27995e-015
rhumerus -18.8056 -11.4662 -82.1624
rradius 33.0143
rwrist -0.650653
rhand -19.5302 24.6123
rfingers 7.12502
rthumb 6.79333 -5.25874
lclavicle -2.33479e-014 -3.27995e-015
lhumerus -40.0529 19.0978 72.0313
lradius 14.1374
lwrist -5.85633
lhand -27.533 22.9392
lfingers 7.12502
lthumb -0.934922 52.9169
rfemur 11.8714 6.17531 31.4544
rtibia 34.5691
rfoot -13.4546 -1.60851
rtoes -7.32571
lfemur -26.5255 -2.90047 -14.3033
ltibia 22.8899
lfoot -1.18892 -5.36064
ltoes -1.4447
336
root 0.722126 17.5515 34.1095 -1.39384 -4.28092 -4.23611
lowerback 7.79026 2.57241 4.71495
upperback 0.158111 3.89914 1.26494
thorax -3.97649 1.85362 -1.75409
lowerneck -14.6942 -3.5516 -1.9195
upperneck 20.7295 -4.73138 1.14283
head 8.9966 -2.24406 0.139197
rclavicle -2.69664e-014 -1.55052e-014
rhumerus -19.4973 -11.7963 -82.0857
rradius 33.2565
rwrist -0.44664
rhand -19.7069 24.468
rfingers 7.12502
rthumb 6.62281 -5.40849
lclavicle -2.69664e-014 -1.55052e-014
lhumerus -40.2842 19.1929 71.9121
lradius 14.0661
lwrist -5.92648
lhand -27.8814 22.5388
lfingers 7.12502
lthumb -1.27138 52.5148
rfemur 11.6416 5.64189 30.5771
rtibia 36.2719
rfoot -11.5973 -0.765361
rtoes -6.43546
lfemur -26.1158 -3.051 -15.136
ltibia 23.5477
lfoot -0.235557 -6.75724
ltoes -0.0102276
337
root 0.749903 17.5595 34.3393 -1.61851 -3.84855 -3.63028
lowerback 7.33786 2.50237 4.35982
upperback 0.478128 3.72777 1.04489
thorax -3.40763 1.79227 -1.73285
lowerneck -15.188 -3.60517 -2.06369
upperneck 20.8945 -4.79884 1.29189
head 9.15364 -2.26537 0.194406
rclavicle 2.24565e-015 -3.57812e-015
rhumerus -19.4482 -12.614 -82.0608
rradius 32.9785
rwrist -0.137469
rhand -19.6798 24.4564
rfingers 7.12502
rthumb 6.64893 -5.41917
lclavicle 2.24565e-015 -3.57812e-015
lhumerus -39.8485 19.6506 71.8042
lradius 13.8339
lwrist -6.23747
lhand -27.9172 21.8752
lfingers 7.12502
lthumb -1.30591 51.8509
rfemur 11.263 4.98397 29.5668
rtibia 38.1418
rfoot -9.2174 0.0957334
rtoes -6.06619
lfemur -25.7316 -3.18125 -16.1296
ltibia 24.5619
lfoot -0.139833 -7.48843
ltoes 1.24831
338
root 0.770028 17.5661 34.5638 -1.98978 -3.71743 -3.37418
lowerback 7.87856 2.51471 4.14161
upperback 0.317941 3.7585 0.983994
thorax -3.8849 1.79689 -1.71159
lowerneck -15.1887 -3.67799 -2.06774
upperneck 21.1608 -4.90671 1.29489
head 9.24831 -2.31396 0.18017
rclavicle 3.97569e-014 1.15295e-014
rhumerus -20.095 -13.1948 -81.7863
rradius 32.4029
rwrist -0.126926
rhand -19.5764 24.6313
rfingers 7.12502
rthumb 6.74879 -5.24111
lclavicle 3.97569e-014 1.15295e-014
lhumerus -40.2269 19.7191 71.5719
lradius 13.9087
lwrist -6.54937
lhand -27.674 21.9259
lfingers 7.12502
lthumb -1.07105 51.903
rfemur 10.8322 4.52578 28.971
rtibia 40.1287
rfoot -6.34936 0.92433
rtoes -5.60865
lfemur -25.2699 -3.02299 -16.7112
ltibia 25.8778
lfoot -0.977215 -7.31937
ltoes 1.26726
